<svg xmlns="http://www.w3.org/2000/svg" viewBox="0 0 1600 900" width="1600" height="900" role="img" aria-label="Wool-dyed filament, recycling and CAD models">
  <rect width="1600" height="900" fill="#215DEE"/>
  <path d="M 168 648 C 168 545,168 442,168 338 C 168 292,206 254,252 254 L 555 254 C 601 254,639 292,639 338 L 639 648 L 168 648 L 168 338 L 405 338 L 405 445 C 405 493,445 532,493 532 C 541 532,580 493,580 445 C 580 397,541 358,493 358 C 445 358,405 397,405 445 C 405 571,568 604,678 536 C 760 485,776 401,720 346 C 672 298,681 230,742 207 C 801 184,862 233,851 296 C 841 354,779 380,739 340 C 690 291,714 212,785 183 C 875 146,982 190,1021 280 C 1061 372,1018 475,930 516 C 841 557,736 522,695 437 C 650 344,697 234,790 194 C 917 139,1062 209,1095 342 C 1128 475,1047 606,916 631 C 780 657,650 575,621 440 C 593 307,680 176,812 142 C 982 99,1153 210,1192 378 C 1233 554,1122 728,950 760 C 781 792,616 691,581 525 C 544 352,651 181,820 132 C 1036 70,1258 198,1316 411 C 1344 515,1327 627,1268 718 C 1211 805,1119 850,1027 834 C 943 820,873 759,849 680 C 828 613,860 544,927 520 C 993 496,1065 526,1097 588 C 1130 652,1108 730,1048 768" fill="none" stroke="#FFFFFF" stroke-width="14" stroke-linecap="round" stroke-linejoin="round"/>
</svg>
