<svg xmlns="http://www.w3.org/2000/svg" viewBox="0 0 1600 900" width="1600" height="900" role="img" aria-label="Pod tryskou 22/2026 hero illustration">
  <rect width="1600" height="900" fill="#215DEE"/>
  <path d="M 448.0 455.0 L 449.0 457.6 L 449.5 460.5 L 449.6 463.6 L 449.2 466.8 L 448.3 470.0 L 446.9 473.2 L 444.9 476.3 L 442.3 479.1 L 439.3 481.6 L 435.8 483.8 L 431.8 485.4 L 427.6 486.5 L 423.1 487.0 L 418.3 486.8 L 413.6 485.9 L 408.8 484.3 L 404.2 481.9 L 399.9 478.9 L 395.9 475.1 L 392.5 470.7 L 389.6 465.7 L 387.4 460.2 L 385.9 454.3 L 385.3 448.1 L 385.6 441.7 L 386.8 435.3 L 388.9 429.0 L 392.0 422.9 L 396.0 417.1 L 400.9 411.9 L 406.6 407.3 L 412.9 403.4 L 420.0 400.5 L 427.5 398.5 L 435.3 397.5 L 443.4 397.7 L 451.5 399.0 L 459.5 401.5 L 467.2 405.1 L 474.5 409.9 L 481.2 415.7 L 487.1 422.5 L 492.0 430.2 L 495.9 438.7 L 498.7 447.7 L 500.1 457.2 L 500.3 467.0 L 499.1 476.8 L 496.5 486.6 L 492.5 496.0 L 487.1 504.9 L 480.5 513.1 L 472.7 520.4 L 463.8 526.7 L 454.0 531.7 L 443.5 535.4 L 432.4 537.6 L 420.9 538.3 L 409.4 537.4 L 397.9 534.8 L 386.7 530.7 L 376.0 524.9 L 366.2 517.7 L 357.3 509.0 L 349.6 499.1 L 343.2 488.1 L 338.4 476.2 L 335.2 463.5 L 333.8 450.4 L 334.2 437.1 L 336.5 423.8 L 340.7 410.8 L 346.6 398.4 L 354.3 386.7 L 363.6 376.1 L 374.4 366.8 L 386.6 359.0 L 399.8 352.9 L 413.9 348.6 L 428.6 346.3 L 443.6 346.0 L 458.7 347.7 L 473.5 351.6 L 487.9 357.6 L 501.3 365.5 L 513.7 375.4 L 524.8 386.9 L 534.2 400.0 L 541.8 414.4 L 547.4 429.8 L 550.9 446.0 L 552.1 462.7 L 551.0 479.6 L 547.6 496.3 L 541.8 512.5 L 533.8 528.0 L 523.7 542.3 L 511.6 555.1 L 497.7 566.3 L 482.3 575.6 L 465.6 582.7 L 447.9 587.5 L 429.6 589.8 L 411.0 589.7 L 392.5 586.9 L 374.3 581.5 L 356.9 573.7 L 340.7 563.5 L 325.8 551.0 L 312.7 536.5 L 301.7 520.2 L 292.9 502.4 L 286.6 483.4 L 282.9 463.6 L 282.0 443.3 L 283.9 422.9 L 288.6 402.8 L 296.1 383.4 L 306.2 365.1 L 600.0 380.0 L 690.0 330.0 L 780.0 330.0 L 840.0 390.0 L 820.0 460.0 L 760.0 500.0 L 710.0 470.0 L 785.0 515.0 L 855.0 515.0 L 820.0 585.0 L 820.0 650.0 L 640.0 675.0 L 660.0 677.4 L 680.0 679.2 L 700.0 680.0 L 720.0 679.5 L 740.0 678.0 L 760.0 675.7 L 780.0 673.2 L 800.0 671.2 L 820.0 670.1 L 840.0 670.2 L 860.0 671.5 L 880.0 673.6 L 900.0 676.1 L 920.0 678.3 L 940.0 679.7 L 960.0 679.9 L 980.0 679.0 L 1000.0 677.1 L 1000.0 703.0 L 980.0 705.4 L 960.0 707.2 L 940.0 708.0 L 920.0 707.5 L 900.0 706.0 L 880.0 703.7 L 860.0 701.2 L 840.0 699.2 L 820.0 698.1 L 800.0 698.2 L 780.0 699.5 L 760.0 701.6 L 740.0 704.1 L 720.0 706.3 L 700.0 707.7 L 680.0 707.9 L 660.0 707.0 L 640.0 705.1 L 640.0 731.0 L 660.0 733.4 L 680.0 735.2 L 700.0 736.0 L 720.0 735.5 L 740.0 734.0 L 760.0 731.7 L 780.0 729.2 L 800.0 727.2 L 820.0 726.1 L 840.0 726.2 L 860.0 727.5 L 880.0 729.6 L 900.0 732.1 L 920.0 734.3 L 940.0 735.7 L 960.0 735.9 L 980.0 735.0 L 1000.0 733.1 L 1000.0 759.0 L 980.0 761.4 L 960.0 763.2 L 940.0 764.0 L 920.0 763.5 L 900.0 762.0 L 880.0 759.7 L 860.0 757.2 L 840.0 755.2 L 820.0 754.1 L 800.0 754.2 L 780.0 755.5 L 760.0 757.6 L 740.0 760.1 L 720.0 762.3 L 700.0 763.7 L 680.0 763.9 L 660.0 763.0 L 640.0 761.1 L 640.0 787.0 L 660.0 789.4 L 680.0 791.2 L 700.0 792.0 L 720.0 791.5 L 740.0 790.0 L 760.0 787.7 L 780.0 785.2 L 800.0 783.2 L 820.0 782.1 L 840.0 782.2 L 860.0 783.5 L 880.0 785.6 L 900.0 788.1 L 920.0 790.3 L 940.0 791.7 L 960.0 791.9 L 980.0 791.0 L 1000.0 789.1 L 1040.0 650.0 L 1120.0 590.0 L 1110.0 500.0 L 1040.0 470.0 L 990.0 520.0 L 1030.0 575.0 L 1120.0 540.0 L 1190.0 480.0" fill="none" stroke="#FFFFFF" stroke-width="16" stroke-linecap="round" stroke-linejoin="round"/>
</svg>
