<svg xmlns="http://www.w3.org/2000/svg" viewBox="0 0 1600 900" width="1600" height="900" role="img" aria-label="Clean nozzle, open source dispute, texture painting and safe ventilation">
  <rect width="1600" height="900" fill="#215DEE"/>
  <path d="M 170 648 L 170 290 L 636 290 L 636 648 L 170 648 L 170 290 L 403 290 L 403 410 C 403 456,440 493,486 493 C 532 493,569 456,569 410 C 569 364,532 327,486 327 C 440 327,403 364,403 410 C 403 513,525 573,625 526 C 692 495,713 421,671 362 C 628 301,646 219,711 185 C 778 151,856 191,870 265 C 884 340,831 406,756 401 C 684 396,632 331,643 261 C 657 175,738 116,824 130 C 934 148,1010 247,992 357 C 974 467,871 543,761 525 C 647 507,567 402,584 288 C 605 147,738 51,879 75 C 1040 102,1150 251,1126 413 C 1102 575,949 687,787 662 C 609 635,489 468,516 290 C 543 112,711 -9,889 18 C 1093 49,1233 238,1203 442 C 1182 586,1071 703,930 736 C 838 758,779 828,822 897 C 864 965,970 960,1006 888 C 1038 824,998 748,927 741 C 855 734,797 789,801 861 C 805 934,867 990,940 986 C 1017 982,1080 923,1084 846 C 1089 750,1165 673,1261 673 C 1356 673,1433 750,1433 845" fill="none" stroke="#FFFFFF" stroke-width="14" stroke-linecap="round" stroke-linejoin="round"/>
</svg>
