<svg xmlns="http://www.w3.org/2000/svg" viewBox="0 0 1600 900" width="1600" height="900" role="img" aria-label="Nintendo Switch Klipper hack, slicer strength and open firmware">
  <rect width="1600" height="900" fill="#215DEE"/>
  <path d="M 162 650 L 162 292 L 642 292 L 642 650 L 162 650 L 162 292 C 224 235,323 229,394 275 C 471 325,477 424,405 482 C 337 537,238 515,198 438 C 160 364,190 275,263 238 C 354 191,466 225,513 315 C 557 400,522 506,439 552 C 355 599,247 575,190 499 C 126 414,143 295,225 222 C 337 121,515 156,590 287 C 626 351,622 430,580 490 C 548 536,548 585,589 616 C 638 653,715 636,746 581 C 779 524,745 453,682 440 C 618 427,568 486,584 550 C 600 613,672 650,731 624 C 785 600,823 551,827 492 C 832 433,872 382,930 372 C 991 362,1045 399,1060 458 C 1077 527,1034 594,966 609 C 896 624,830 579,815 509 C 797 423,848 334,932 306 C 1034 272,1136 336,1164 439 C 1195 551,1127 667,1015 700 C 891 737,763 665,728 541 C 690 407,765 270,898 234 C 1059 190,1224 288,1267 448 C 1297 562,1255 688,1164 763 C 1066 843,925 849,822 782 C 726 719,682 604,713 498 C 739 404,815 333,912 318 C 1013 302,1110 351,1157 440" fill="none" stroke="#FFFFFF" stroke-width="14" stroke-linecap="round" stroke-linejoin="round"/>
</svg>
