<svg style="fill-rule:evenodd;clip-rule:evenodd;stroke-linejoin:round;stroke-miterlimit:2;" xml:space="preserve" xmlns:xlink="http://www.w3.org/1999/xlink" xmlns="http://www.w3.org/2000/svg" version="1.1" viewBox="0 0 711 186" height="100%" width="100%">
    <g transform="matrix(1.33333,0,0,1.33333,-280.025,-419.048)">
        <g transform="matrix(0.914166,0,0,0.914166,30.9938,33.5119)">
            <g transform="matrix(0.964696,0,0,0.964696,-9.74002,20.8414)">
                <g transform="matrix(1.73,0,0,1.73,-275.391,447.44)" id="path527067">
                    <path style="fill:rgb(0,149,255);fill-rule:nonzero;" d="M435.251,-22.4C435.485,-22.4 435.677,-22.315 435.827,-22.144C435.997,-21.995 436.083,-21.803 436.083,-21.568L436.083,-8.288C436.083,-6.837 435.827,-5.579 435.315,-4.512C434.824,-3.445 434.152,-2.56 433.299,-1.856C432.445,-1.152 431.432,-0.629 430.258,-0.288C429.107,0.053 427.88,0.224 426.578,0.224C425.426,0.224 424.296,0.075 423.186,-0.224C422.098,-0.523 421.117,-0.971 420.242,-1.568C419.368,-2.187 418.653,-2.955 418.098,-3.872C417.565,-4.789 417.288,-5.877 417.266,-7.136C417.266,-7.307 417.33,-7.477 417.458,-7.648C417.586,-7.776 417.746,-7.84 417.938,-7.84L422.515,-7.84C422.792,-7.84 423.027,-7.776 423.219,-7.648C423.368,-7.499 423.507,-7.264 423.635,-6.944C423.955,-5.365 424.989,-4.576 426.739,-4.576C427.314,-4.576 427.805,-4.672 428.21,-4.864C428.616,-5.077 428.936,-5.365 429.17,-5.728C429.426,-6.091 429.608,-6.507 429.714,-6.976C429.842,-7.445 429.906,-7.947 429.906,-8.48L429.906,-15.744C429.906,-16.149 430.077,-16.533 430.418,-16.896C430.76,-17.28 431.176,-17.472 431.666,-17.472L419.666,-17.472C419.432,-17.472 419.24,-17.547 419.09,-17.696C418.941,-17.867 418.866,-18.059 418.866,-18.272L418.866,-19.648C418.866,-19.989 418.93,-20.32 419.058,-20.64C419.186,-20.981 419.368,-21.28 419.602,-21.536C419.858,-21.792 420.157,-21.995 420.498,-22.144C420.84,-22.315 421.224,-22.4 421.65,-22.4L435.251,-22.4Z"></path>
                </g>
                <g transform="matrix(1.73,0,0,1.73,-275.391,447.44)" id="path527069">
                    <path style="fill:rgb(0,149,255);fill-rule:nonzero;" d="M440.333,-0.864L440.333,-19.584C440.333,-20.395 440.61,-21.056 441.165,-21.568C441.72,-22.101 442.37,-22.368 443.117,-22.368L456.173,-22.368C456.408,-22.368 456.6,-22.283 456.749,-22.112C456.92,-21.963 457.005,-21.771 457.005,-21.536L457.005,-18.368C457.005,-18.133 456.93,-17.952 456.781,-17.824C456.632,-17.675 456.429,-17.6 456.173,-17.6L444.365,-17.6C444.877,-17.6 445.293,-17.419 445.613,-17.056C445.954,-16.693 446.125,-16.299 446.125,-15.872L446.125,-14.528C446.125,-14.293 446.2,-14.069 446.349,-13.856C446.52,-13.643 446.765,-13.536 447.085,-13.536L454.061,-13.536C454.296,-13.536 454.488,-13.451 454.637,-13.28C454.808,-13.131 454.893,-12.939 454.893,-12.704L454.893,-9.824C454.893,-9.589 454.808,-9.387 454.637,-9.216C454.488,-9.067 454.296,-8.992 454.061,-8.992L444.365,-8.992C444.856,-8.992 445.272,-8.821 445.613,-8.48C445.954,-8.139 446.125,-7.755 446.125,-7.328L446.125,-5.824C446.125,-5.589 446.21,-5.365 446.381,-5.152C446.552,-4.939 446.786,-4.832 447.085,-4.832L456.429,-4.832C456.984,-4.832 457.261,-4.555 457.261,-4L457.261,-0.864C457.261,-0.608 457.176,-0.405 457.005,-0.256C456.856,-0.128 456.664,-0.064 456.429,-0.064L441.133,-0.064C440.92,-0.064 440.728,-0.139 440.557,-0.288C440.408,-0.459 440.333,-0.651 440.333,-0.864Z"></path>
                </g>
                <g transform="matrix(1.73,0,0,1.73,-275.391,447.44)" id="path527071">
                    <path style="fill:rgb(0,149,255);fill-rule:nonzero;" d="M486.014,-0.064L481.502,-0.064C480.904,-0.064 480.478,-0.341 480.222,-0.896L476.958,-7.296C476.766,-7.637 476.478,-7.808 476.094,-7.808L471.902,-7.808C472.435,-7.808 472.851,-7.616 473.15,-7.232C473.47,-6.869 473.63,-6.496 473.63,-6.112L473.63,-0.832C473.63,-0.597 473.555,-0.416 473.406,-0.288C473.256,-0.139 473.064,-0.064 472.83,-0.064L468.446,-0.064C468.232,-0.064 468.04,-0.139 467.87,-0.288C467.72,-0.459 467.646,-0.64 467.646,-0.832L467.646,-19.584C467.646,-20.373 467.923,-21.024 468.478,-21.536C469.032,-22.069 469.683,-22.336 470.43,-22.336L477.214,-22.336C478.408,-22.336 479.539,-22.208 480.606,-21.952C481.694,-21.696 482.643,-21.28 483.454,-20.704C484.286,-20.128 484.947,-19.371 485.438,-18.432C485.928,-17.515 486.174,-16.384 486.174,-15.04C486.174,-13.76 485.885,-12.608 485.31,-11.584C484.734,-10.56 483.88,-9.728 482.75,-9.088C482.579,-8.981 482.483,-8.853 482.462,-8.704C482.462,-8.555 482.494,-8.437 482.558,-8.352L486.59,-1.056C486.654,-0.928 486.686,-0.811 486.686,-0.704C486.686,-0.533 486.611,-0.384 486.462,-0.256C486.334,-0.128 486.184,-0.064 486.014,-0.064ZM479.998,-15.072C479.998,-15.947 479.731,-16.608 479.198,-17.056C478.686,-17.525 478.014,-17.76 477.181,-17.76L471.677,-17.76C472.211,-17.76 472.637,-17.579 472.957,-17.216C473.277,-16.853 473.437,-16.469 473.437,-16.064L473.437,-13.472C473.437,-13.216 473.523,-12.992 473.693,-12.8C473.885,-12.608 474.12,-12.512 474.397,-12.512L477.181,-12.512C478.013,-12.512 478.685,-12.715 479.197,-13.12C479.731,-13.547 479.997,-14.197 479.997,-15.072Z"></path>
                </g>
                <g transform="matrix(1.73,0,0,1.73,-275.391,447.44)" id="path527073">
                    <path style="fill:rgb(0,149,255);fill-rule:nonzero;" d="M488.135,-0.192C488.008,-0.363 487.943,-0.523 487.943,-0.672C487.943,-0.821 487.954,-0.917 487.975,-0.96L495.399,-21.376C495.634,-21.995 496.061,-22.304 496.679,-22.304L501.639,-22.304C502.258,-22.304 502.685,-21.995 502.919,-21.376L510.343,-0.96C510.365,-0.917 510.375,-0.821 510.375,-0.672C510.375,-0.501 510.301,-0.341 510.151,-0.192C510.023,-0.064 509.874,0 509.704,0L505.576,0C505.042,0 504.68,-0.235 504.488,-0.704L502.824,-5.216C502.056,-4.917 501.277,-4.672 500.488,-4.48C499.698,-4.288 498.93,-4.139 498.184,-4.032C497.458,-3.947 496.776,-3.883 496.136,-3.84C495.496,-3.819 494.941,-3.808 494.472,-3.808L493.704,-3.808C493.512,-3.808 493.362,-3.819 493.256,-3.84C493.64,-3.776 493.949,-3.563 494.184,-3.2C494.44,-2.837 494.472,-2.411 494.28,-1.92L493.832,-0.704C493.64,-0.235 493.277,0 492.744,0L488.616,0C488.466,0 488.306,-0.064 488.135,-0.192ZM496.263,-8.384C496.861,-8.427 497.479,-8.501 498.119,-8.608C498.674,-8.693 499.25,-8.811 499.847,-8.96C500.466,-9.131 501.053,-9.365 501.607,-9.664L499.143,-16.704L496.263,-8.384Z"></path>
                </g>
                <g transform="matrix(1.73,0,0,1.73,-275.391,447.44)" id="path527075">
                    <path style="fill:rgb(0,149,255);fill-rule:nonzero;" d="M512.926,-0.8L512.926,-19.52C512.926,-20.331 513.203,-20.992 513.758,-21.504C514.334,-22.037 514.985,-22.304 515.71,-22.304L522.11,-22.304C523.539,-22.304 524.851,-22.133 526.046,-21.792C527.262,-21.472 528.318,-20.949 529.214,-20.224C530.11,-19.52 530.814,-18.613 531.326,-17.504C531.838,-16.416 532.115,-15.115 532.158,-13.6C532.179,-13.301 532.19,-12.939 532.19,-12.512L532.19,-9.792C532.19,-9.387 532.179,-9.035 532.158,-8.736C531.966,-2.912 528.67,0 522.27,0L513.726,0C513.491,0 513.299,-0.075 513.15,-0.224C513.001,-0.373 512.926,-0.565 512.926,-0.8ZM522.11,-4.768C523.497,-4.768 524.499,-5.099 525.118,-5.76C525.737,-6.443 526.057,-7.456 526.078,-8.8C526.099,-9.099 526.11,-9.44 526.11,-9.824C526.131,-10.229 526.142,-10.677 526.142,-11.168C526.142,-11.659 526.131,-12.096 526.11,-12.48C526.11,-12.885 526.099,-13.237 526.078,-13.536C526.014,-16.203 524.638,-17.536 521.95,-17.536L517.15,-17.536C517.641,-17.536 518.057,-17.355 518.398,-16.992C518.739,-16.651 518.91,-16.277 518.91,-15.872L518.91,-5.76C518.91,-5.483 518.995,-5.248 519.166,-5.056C519.358,-4.864 519.603,-4.768 519.902,-4.768L522.11,-4.768Z"></path>
                </g>
                <g transform="matrix(1.73,0,0,1.73,-275.391,447.44)" id="path527077">
                    <path style="fill:rgb(0,149,255);fill-rule:nonzero;" d="M545.206,0.32C542.177,0.32 539.787,-0.416 538.038,-1.888C536.289,-3.36 535.361,-5.525 535.254,-8.384C535.233,-8.981 535.222,-9.899 535.222,-11.136C535.222,-12.373 535.233,-13.301 535.254,-13.92C535.339,-16.736 536.267,-18.901 538.038,-20.416C539.83,-21.952 542.219,-22.72 545.206,-22.72C548.171,-22.72 550.539,-21.952 552.31,-20.416C554.102,-18.901 555.041,-16.736 555.126,-13.92C555.169,-12.683 555.19,-11.755 555.19,-11.136C555.19,-10.496 555.169,-9.579 555.126,-8.384C555.019,-5.525 554.091,-3.36 552.342,-1.888C550.614,-0.416 548.235,0.32 545.206,0.32ZM545.206,-4.48C546.315,-4.48 547.201,-4.811 547.862,-5.472C548.523,-6.155 548.875,-7.189 548.918,-8.576C548.961,-9.813 548.982,-10.699 548.982,-11.232C548.982,-11.765 548.961,-12.629 548.918,-13.824C548.875,-15.211 548.523,-16.235 547.862,-16.896C547.201,-17.579 546.315,-17.92 545.206,-17.92C544.075,-17.92 543.179,-17.579 542.518,-16.896C541.857,-16.235 541.505,-15.211 541.462,-13.824C541.441,-13.227 541.43,-12.363 541.43,-11.232C541.43,-10.08 541.441,-9.195 541.462,-8.576C541.505,-7.189 541.857,-6.155 542.518,-5.472C543.179,-4.811 544.075,-4.48 545.206,-4.48Z"></path>
                </g>
                <g transform="matrix(1.73,0,0,1.73,-275.391,447.44)" id="path527079">
                    <path style="fill:rgb(0,149,255);fill-rule:nonzero;" d="M576.977,-6.784C576.977,-5.483 576.668,-4.384 576.049,-3.488C575.452,-2.592 574.684,-1.867 573.745,-1.312C572.806,-0.757 571.761,-0.352 570.609,-0.096C569.457,0.139 568.337,0.256 567.249,0.256C566.204,0.256 565.116,0.149 563.985,-0.064C562.876,-0.277 561.852,-0.629 560.913,-1.12C559.974,-1.632 559.185,-2.293 558.545,-3.104C557.926,-3.936 557.585,-4.96 557.521,-6.176C557.521,-6.368 557.585,-6.528 557.713,-6.656C557.862,-6.784 558.033,-6.848 558.225,-6.848L562.481,-6.848C562.609,-6.848 562.716,-6.837 562.801,-6.816C562.908,-6.795 563.004,-6.763 563.089,-6.72C563.238,-6.635 563.42,-6.485 563.633,-6.272C563.974,-5.589 564.476,-5.12 565.137,-4.864C565.82,-4.629 566.524,-4.512 567.249,-4.512C567.569,-4.512 567.932,-4.533 568.337,-4.576C568.764,-4.619 569.148,-4.704 569.489,-4.832C569.852,-4.981 570.161,-5.184 570.417,-5.44C570.673,-5.717 570.801,-6.069 570.801,-6.496C570.801,-7.072 570.588,-7.488 570.161,-7.744C569.734,-8 569.286,-8.203 568.817,-8.352C568.454,-8.48 568.017,-8.597 567.505,-8.704C567.014,-8.832 566.438,-8.96 565.777,-9.088C564.796,-9.28 563.846,-9.525 562.929,-9.824C562.012,-10.144 561.19,-10.56 560.465,-11.072C559.761,-11.584 559.185,-12.224 558.737,-12.992C558.31,-13.781 558.097,-14.741 558.097,-15.872C558.097,-17.28 558.481,-18.485 559.249,-19.488C560.038,-20.512 561.062,-21.291 562.321,-21.824C563.686,-22.379 565.254,-22.656 567.025,-22.656C567.729,-22.656 568.454,-22.592 569.201,-22.464C569.969,-22.357 570.705,-22.165 571.409,-21.888C572.134,-21.632 572.806,-21.28 573.425,-20.832C574.044,-20.405 574.577,-19.883 575.025,-19.264C575.75,-18.325 576.145,-17.376 576.209,-16.416C576.209,-16.245 576.134,-16.085 575.985,-15.936C575.857,-15.787 575.708,-15.712 575.537,-15.712L571.057,-15.712C570.609,-15.712 570.257,-15.904 570.001,-16.288C569.873,-16.736 569.542,-17.12 569.009,-17.44C568.433,-17.739 567.772,-17.888 567.025,-17.888C566.705,-17.888 566.374,-17.867 566.033,-17.824C565.713,-17.781 565.414,-17.685 565.137,-17.536C564.86,-17.387 564.636,-17.184 564.465,-16.928C564.294,-16.693 564.209,-16.384 564.209,-16C564.209,-15.403 564.529,-14.923 565.169,-14.56C565.809,-14.219 567.004,-13.867 568.753,-13.504C569.756,-13.312 570.748,-13.077 571.729,-12.8C572.732,-12.544 573.617,-12.171 574.385,-11.68C575.153,-11.189 575.772,-10.549 576.241,-9.76C576.732,-8.992 576.977,-8 576.977,-6.784Z"></path>
                </g>
                <g transform="matrix(1.73,0,0,1.73,-275.391,447.44)" id="path527081">
                    <path style="fill:rgb(0,149,255);fill-rule:nonzero;" d="M596.536,-22.4C596.77,-22.4 596.962,-22.315 597.112,-22.144C597.282,-21.995 597.367,-21.813 597.367,-21.6L597.367,-18.016C597.367,-17.781 597.282,-17.589 597.112,-17.44C596.962,-17.291 596.77,-17.216 596.536,-17.216L589.112,-17.216C589.581,-17.216 589.997,-17.045 590.36,-16.704C590.744,-16.363 590.936,-15.979 590.936,-15.552L590.936,-0.896C590.936,-0.661 590.85,-0.48 590.68,-0.352C590.53,-0.203 590.338,-0.128 590.104,-0.128L585.656,-0.128C585.421,-0.128 585.229,-0.203 585.08,-0.352C584.909,-0.48 584.824,-0.661 584.824,-0.896L584.824,-16.256C584.824,-16.555 584.728,-16.789 584.536,-16.96C584.344,-17.131 584.12,-17.216 583.864,-17.216L579.224,-17.216C579.01,-17.216 578.818,-17.291 578.648,-17.44C578.477,-17.589 578.392,-17.781 578.392,-18.016L578.392,-19.648C578.392,-20.053 578.466,-20.427 578.616,-20.768C578.786,-21.109 579,-21.397 579.256,-21.632C579.533,-21.888 579.832,-22.08 580.152,-22.208C580.493,-22.336 580.834,-22.4 581.176,-22.4L596.536,-22.4Z"></path>
                </g>
                <g transform="matrix(1.73,0,0,1.73,-275.391,447.44)" id="path527083">
                    <path style="fill:rgb(0,149,255);fill-rule:nonzero;" d="M604.656,-7.328L600.784,-7.328C600.571,-7.328 600.379,-7.403 600.208,-7.552C600.037,-7.701 599.952,-7.893 599.952,-8.128L599.952,-19.616C599.952,-20 600.027,-20.352 600.176,-20.672C600.347,-21.013 600.56,-21.312 600.816,-21.568C601.093,-21.824 601.403,-22.027 601.744,-22.176C602.085,-22.325 602.437,-22.4 602.8,-22.4L604.656,-22.4C604.891,-22.4 605.083,-22.325 605.232,-22.176C605.403,-22.027 605.488,-21.845 605.488,-21.632L605.488,-8.128C605.488,-7.893 605.403,-7.701 605.232,-7.552C605.061,-7.403 604.869,-7.328 604.656,-7.328ZM599.856,-0.896L599.856,-3.104C599.856,-3.509 599.941,-3.872 600.112,-4.192C600.304,-4.533 600.539,-4.821 600.816,-5.056C601.115,-5.312 601.424,-5.504 601.744,-5.632C602.085,-5.781 602.416,-5.856 602.736,-5.856L604.784,-5.856C604.997,-5.856 605.179,-5.76 605.328,-5.568C605.499,-5.397 605.584,-5.216 605.584,-5.024L605.584,-0.896C605.584,-0.704 605.509,-0.523 605.36,-0.352C605.211,-0.203 605.019,-0.128 604.784,-0.128L600.656,-0.128C600.464,-0.128 600.283,-0.203 600.112,-0.352C599.941,-0.501 599.856,-0.683 599.856,-0.896Z"></path>
                </g>
            </g>
            <g transform="matrix(0.964696,0,0,0.964696,-9.74002,20.8414)">
                <g transform="matrix(1.5,0,0,1.5,-159.923,396.47)" id="path527086">
                    <path style="fill:rgb(0,149,255);fill-rule:nonzero;" d="M395.626,0.432C393.946,0.432 392.217,0.312 390.441,0.072C388.665,-0.168 386.913,-0.576 385.185,-1.152C383.505,-1.728 381.921,-2.496 380.433,-3.456C378.993,-4.416 377.769,-5.64 376.761,-7.128C375.225,-9.288 374.433,-11.448 374.385,-13.608C374.385,-14.04 374.529,-14.4 374.817,-14.688C375.153,-14.976 375.537,-15.12 375.969,-15.12L385.833,-15.12C386.409,-15.12 386.865,-15 387.201,-14.76C387.537,-14.52 387.849,-14.184 388.137,-13.752C389.049,-11.4 391.545,-10.224 395.625,-10.224C397.593,-10.224 399.321,-10.68 400.809,-11.592C402.297,-12.552 403.041,-14.136 403.041,-16.344C403.041,-19.896 400.641,-21.672 395.841,-21.672L387.849,-21.672C387.369,-21.672 386.937,-21.84 386.553,-22.176C386.169,-22.56 385.977,-23.016 385.977,-23.544L385.977,-27.792C385.977,-28.8 386.385,-29.616 387.201,-30.24L397.929,-39.024C398.073,-39.12 398.097,-39.24 398.001,-39.384C397.953,-39.576 397.833,-39.672 397.641,-39.672L378.993,-39.672C378.513,-39.672 378.081,-39.84 377.697,-40.176C377.361,-40.512 377.193,-40.944 377.193,-41.472L377.193,-44.208C377.193,-45.12 377.361,-45.96 377.697,-46.728C378.081,-47.496 378.561,-48.144 379.137,-48.672C379.761,-49.248 380.433,-49.68 381.153,-49.968C381.921,-50.256 382.689,-50.4 383.457,-50.4L412.329,-50.4C412.905,-50.4 413.337,-50.232 413.625,-49.896C413.961,-49.56 414.129,-49.128 414.129,-48.6L414.129,-42.192C414.129,-41.136 413.745,-40.344 412.977,-39.816C411.201,-38.184 409.593,-36.696 408.153,-35.352C407.289,-34.584 406.593,-33.96 406.065,-33.48C405.585,-33 405.105,-32.544 404.625,-32.112C404.193,-31.728 403.809,-31.392 403.473,-31.104C403.185,-30.816 403.017,-30.648 402.969,-30.6C402.825,-30.456 402.777,-30.312 402.825,-30.168C402.921,-30.072 403.041,-30.024 403.185,-30.024C403.233,-29.976 403.401,-29.904 403.689,-29.808C403.977,-29.76 404.193,-29.736 404.337,-29.736C408.273,-28.92 411.345,-27.384 413.553,-25.128C415.809,-22.872 416.937,-19.656 416.937,-15.48C416.937,-12.552 416.289,-10.08 414.993,-8.064C413.697,-6.048 412.017,-4.392 409.953,-3.096C407.889,-1.848 405.585,-0.936 403.041,-0.36C400.545,0.168 398.073,0.432 395.625,0.432Z"></path>
                </g>
                <g transform="matrix(1.5,0,0,1.5,-159.923,396.47)" id="path527088">
                    <path style="fill:rgb(0,149,255);fill-rule:nonzero;" d="M424.646,-1.8L424.646,-43.92C424.646,-45.744 425.27,-47.232 426.518,-48.384C427.814,-49.584 429.278,-50.184 430.91,-50.184L445.31,-50.184C448.526,-50.184 451.478,-49.8 454.166,-49.032C456.902,-48.312 459.278,-47.136 461.294,-45.504C463.31,-43.92 464.894,-41.88 466.046,-39.384C467.198,-36.936 467.822,-34.008 467.918,-30.6C467.966,-29.928 467.99,-29.112 467.99,-28.152L467.99,-22.032C467.99,-21.12 467.966,-20.328 467.918,-19.656C467.486,-6.552 460.07,0 445.67,0L426.446,0C425.918,0 425.486,-0.168 425.15,-0.504C424.814,-0.84 424.646,-1.272 424.646,-1.8ZM445.31,-10.728C448.43,-10.728 450.686,-11.472 452.078,-12.96C453.47,-14.496 454.19,-16.776 454.238,-19.8C454.286,-20.472 454.31,-21.24 454.31,-22.104C454.358,-23.016 454.382,-24.024 454.382,-25.128C454.382,-26.232 454.358,-27.216 454.31,-28.08C454.31,-28.992 454.286,-29.784 454.238,-30.456C454.094,-36.456 450.998,-39.456 444.95,-39.456L434.15,-39.456C435.254,-39.456 436.19,-39.048 436.958,-38.232C437.726,-37.464 438.11,-36.624 438.11,-35.712L438.11,-12.96C438.11,-12.336 438.302,-11.808 438.686,-11.376C439.118,-10.944 439.67,-10.728 440.342,-10.728L445.31,-10.728Z"></path>
                </g>
                <g transform="matrix(1.5,0,0,1.5,-159.923,396.47)" id="path527090">
                    <path style="fill:rgb(0,149,255);fill-rule:nonzero;" d="M529.096,-50.4C529.624,-50.4 530.056,-50.208 530.392,-49.824C530.776,-49.488 530.968,-49.08 530.968,-48.6L530.968,-40.536C530.968,-40.008 530.776,-39.576 530.392,-39.24C530.056,-38.904 529.624,-38.736 529.096,-38.736L512.392,-38.736C513.448,-38.736 514.384,-38.352 515.2,-37.584C516.064,-36.816 516.496,-35.952 516.496,-34.992L516.496,-2.016C516.496,-1.488 516.304,-1.08 515.92,-0.792C515.584,-0.456 515.152,-0.288 514.624,-0.288L504.616,-0.288C504.088,-0.288 503.656,-0.456 503.32,-0.792C502.936,-1.08 502.744,-1.488 502.744,-2.016L502.744,-36.576C502.744,-37.248 502.528,-37.776 502.096,-38.16C501.664,-38.544 501.159,-38.736 500.584,-38.736L490.144,-38.736C489.664,-38.736 489.232,-38.904 488.848,-39.24C488.464,-39.576 488.272,-40.008 488.272,-40.536L488.272,-44.208C488.272,-45.12 488.44,-45.96 488.776,-46.728C489.16,-47.496 489.64,-48.144 490.216,-48.672C490.84,-49.248 491.512,-49.68 492.232,-49.968C493,-50.256 493.768,-50.4 494.536,-50.4L529.096,-50.4Z"></path>
                </g>
                <g transform="matrix(1.5,0,0,1.5,-159.923,396.47)" id="path527092">
                    <path style="fill:rgb(0,149,255);fill-rule:nonzero;" d="M537.287,-1.944L537.287,-44.064C537.287,-45.888 537.911,-47.376 539.159,-48.528C540.407,-49.728 541.871,-50.328 543.551,-50.328L549.311,-50.328C549.887,-50.328 550.319,-50.16 550.607,-49.824C550.943,-49.488 551.111,-49.056 551.111,-48.528L551.111,-1.944C551.111,-1.464 550.943,-1.056 550.607,-0.72C550.319,-0.336 549.887,-0.144 549.311,-0.144L539.087,-0.144C538.607,-0.144 538.175,-0.312 537.791,-0.648C537.455,-1.032 537.287,-1.464 537.287,-1.944Z"></path>
                </g>
                <g transform="matrix(1.5,0,0,1.5,-159.923,396.47)" id="path527094">
                    <path style="fill:rgb(0,149,255);fill-rule:nonzero;" d="M601.808,-15.264C601.808,-12.336 601.112,-9.864 599.72,-7.848C598.376,-5.832 596.648,-4.2 594.536,-2.952C592.424,-1.704 590.072,-0.792 587.48,-0.216C584.888,0.312 582.368,0.576 579.92,0.576C577.568,0.576 575.12,0.336 572.576,-0.144C570.08,-0.624 567.776,-1.416 565.664,-2.52C563.552,-3.672 561.776,-5.16 560.336,-6.984C558.944,-8.856 558.176,-11.16 558.032,-13.896C558.032,-14.328 558.176,-14.688 558.464,-14.976C558.8,-15.264 559.184,-15.408 559.616,-15.408L569.192,-15.408C569.48,-15.408 569.72,-15.384 569.912,-15.336C570.152,-15.288 570.368,-15.216 570.56,-15.12C570.896,-14.928 571.304,-14.592 571.784,-14.112C572.552,-12.576 573.68,-11.52 575.168,-10.944C576.704,-10.416 578.288,-10.152 579.92,-10.152C580.64,-10.152 581.456,-10.2 582.368,-10.296C583.328,-10.392 584.192,-10.584 584.96,-10.872C585.776,-11.208 586.472,-11.664 587.048,-12.24C587.624,-12.864 587.912,-13.656 587.912,-14.616C587.912,-15.912 587.432,-16.848 586.472,-17.424C585.512,-18 584.504,-18.456 583.448,-18.792C582.632,-19.08 581.648,-19.344 580.496,-19.584C579.392,-19.872 578.096,-20.16 576.608,-20.448C574.4,-20.88 572.264,-21.432 570.2,-22.104C568.136,-22.824 566.288,-23.76 564.656,-24.912C563.072,-26.064 561.776,-27.504 560.768,-29.232C559.808,-31.008 559.328,-33.168 559.328,-35.712C559.328,-38.88 560.192,-41.592 561.92,-43.848C563.696,-46.152 566,-47.904 568.832,-49.104C571.904,-50.352 575.432,-50.976 579.416,-50.976C581,-50.976 582.632,-50.832 584.312,-50.544C586.04,-50.304 587.696,-49.872 589.28,-49.248C590.912,-48.672 592.424,-47.88 593.816,-46.872C595.208,-45.912 596.408,-44.736 597.416,-43.344C599.048,-41.232 599.936,-39.096 600.08,-36.936C600.08,-36.552 599.912,-36.192 599.576,-35.856C599.288,-35.52 598.952,-35.352 598.568,-35.352L588.488,-35.352C587.48,-35.352 586.688,-35.784 586.112,-36.648C585.824,-37.656 585.08,-38.52 583.88,-39.24C582.584,-39.912 581.096,-40.248 579.416,-40.248C578.696,-40.248 577.952,-40.2 577.184,-40.104C576.464,-40.008 575.792,-39.792 575.168,-39.456C574.544,-39.12 574.04,-38.664 573.656,-38.088C573.272,-37.56 573.08,-36.864 573.08,-36C573.08,-34.656 573.8,-33.576 575.24,-32.76C576.68,-31.992 579.368,-31.2 583.304,-30.384C585.56,-29.952 587.792,-29.424 590,-28.8C592.256,-28.224 594.248,-27.384 595.976,-26.28C597.704,-25.176 599.096,-23.736 600.152,-21.96C601.256,-20.232 601.808,-18 601.808,-15.264Z"></path>
                </g>
                <g transform="matrix(1.5,0,0,1.5,-159.923,396.47)" id="path527096">
                    <path style="fill:rgb(0,149,255);fill-rule:nonzero;" d="M629.025,-26.424C629.889,-26.424 630.705,-26.256 631.473,-25.92C632.241,-25.584 632.913,-25.2 633.489,-24.768C634.113,-24.336 634.641,-23.904 635.073,-23.472C635.505,-23.04 635.817,-22.728 636.009,-22.536L651.057,-2.592C651.249,-2.448 651.345,-2.16 651.345,-1.728C651.345,-1.344 651.201,-1.008 650.913,-0.72C650.577,-0.432 650.193,-0.288 649.761,-0.288L638.529,-0.288C637.281,-0.288 636.321,-0.744 635.649,-1.656C633.393,-4.584 631.353,-7.224 629.529,-9.576C628.425,-10.968 627.537,-12.096 626.865,-12.96C626.193,-13.824 625.569,-14.616 624.993,-15.336C624.417,-16.104 623.913,-16.752 623.481,-17.28C623.097,-17.808 622.857,-18.144 622.761,-18.288C622.569,-18.384 622.449,-18.432 622.401,-18.432C622.161,-18.432 622.041,-18.288 622.041,-18L622.041,-2.016C622.041,-1.488 621.873,-1.056 621.537,-0.72C621.201,-0.432 620.769,-0.288 620.241,-0.288L610.665,-0.288C610.185,-0.288 609.753,-0.432 609.369,-0.72C609.033,-1.056 608.865,-1.488 608.865,-2.016L608.865,-44.208C608.865,-45.792 609.441,-47.208 610.593,-48.456C611.745,-49.752 613.233,-50.4 615.057,-50.4L620.241,-50.4C620.769,-50.4 621.201,-50.232 621.537,-49.896C621.873,-49.56 622.041,-49.128 622.041,-48.6L622.041,-34.056C622.041,-33.816 622.161,-33.696 622.401,-33.696C622.545,-33.696 622.665,-33.744 622.761,-33.84L634.713,-49.032C635.289,-49.944 636.225,-50.4 637.521,-50.4L648.465,-50.4C648.849,-50.4 649.209,-50.256 649.545,-49.968C649.833,-49.68 649.977,-49.344 649.977,-48.96C649.977,-48.48 649.881,-48.192 649.689,-48.096C647.241,-44.88 645.033,-42 643.065,-39.456C641.865,-37.92 640.929,-36.696 640.257,-35.784C639.585,-34.872 638.937,-34.032 638.313,-33.264C637.737,-32.496 637.233,-31.848 636.801,-31.32C636.417,-30.84 636.201,-30.576 636.153,-30.528C636.057,-30.384 635.817,-30.072 635.433,-29.592C635.049,-29.16 634.545,-28.704 633.921,-28.224C633.297,-27.744 632.553,-27.312 631.689,-26.928C630.873,-26.592 629.985,-26.424 629.025,-26.424Z"></path>
                </g>
            </g>
        </g>
        <g transform="matrix(1,0,0,1,-1.77545,-0.665566)">
            <g transform="matrix(0.75,0,0,0.75,0,0)">
                <path style="fill:rgb(0,149,255);" d="M396.365,440.164L464.973,440.164C467.182,440.164 468.973,441.955 468.973,444.164L468.973,601.839C468.973,604.048 467.182,605.839 464.973,605.839L286.393,605.839C284.183,605.839 282.393,604.048 282.393,601.839L282.393,444.164C282.393,441.955 284.183,440.164 286.393,440.164L331.488,440.164C332.154,437.043 333.95,434.15 336.676,431.727C340.404,428.415 345.957,425.975 352.379,425.159C357.016,421.933 363.139,419.936 369.937,419.936C384.629,419.936 396.172,429.267 396.365,440.164ZM382.727,440.164L389.696,440.164C389.615,437.346 388.296,434.766 386.202,432.643C382.54,428.93 376.598,426.602 369.937,426.602C369.423,426.602 368.914,426.616 368.41,426.644C372.031,427.852 375.157,429.611 377.539,431.727C380.265,434.15 382.061,437.043 382.727,440.164ZM344.758,434.257C343.377,434.96 342.147,435.785 341.105,436.711C339.939,437.746 339.019,438.906 338.462,440.164L343.509,440.164C343.545,438.123 343.979,436.137 344.758,434.257ZM350.177,440.164L375.753,440.164C375.196,438.906 374.276,437.746 373.11,436.711C369.508,433.509 363.661,431.528 357.107,431.528C356.324,431.528 355.55,431.557 354.789,431.612C354.397,431.942 354.024,432.286 353.672,432.643C351.577,434.766 350.258,437.346 350.177,440.164ZM460.973,448.164L290.393,448.164L290.393,597.839L460.973,597.839L460.973,448.164Z"></path>
            </g>
            <g transform="matrix(0.756417,0,0,0.725068,-2.55806,13.4199)">
                <path style="fill:rgb(0,149,255);" d="M388.574,436.791C390.763,436.791 392.54,438.645 392.54,440.929C392.54,443.212 390.763,445.066 388.574,445.066L343.854,445.066C341.666,445.066 339.888,443.212 339.888,440.929C339.888,438.645 341.666,436.791 343.854,436.791L388.574,436.791Z"></path>
            </g>
            <g transform="matrix(0.75,0,0,0.75,0,0)">
                <path style="fill:rgb(0,149,255);" d="M298.233,586.529L298.233,457.433C298.233,455.224 300.024,453.433 302.233,453.433L449.861,453.433C452.07,453.433 453.861,455.224 453.861,457.433L453.861,548.351C453.861,550.56 452.07,552.351 449.861,552.351L386.456,552.351L375.268,587.735C374.742,589.399 373.199,590.529 371.454,590.529L302.233,590.529C300.024,590.529 298.233,588.738 298.233,586.529ZM445.861,492.783L445.861,461.433C445.861,461.433 306.233,461.433 306.233,461.433C306.233,461.433 306.233,474.865 306.233,492.783L319.17,492.783L319.17,500.783L306.233,500.783C306.233,536.138 306.233,582.529 306.233,582.529L368.524,582.529L379.712,547.145C380.237,545.481 381.781,544.351 383.525,544.351C383.525,544.351 445.861,544.351 445.861,544.351L445.861,500.783L353.512,500.783L353.512,492.783L445.861,492.783Z"></path>
            </g>
            <g transform="matrix(0.75,0,0,0.75,0,0)">
                <path style="fill:rgb(0,149,255);" d="M440.997,563.423C448.729,563.423 455.006,569.7 455.006,577.432C455.006,585.165 448.729,591.442 440.997,591.442C433.265,591.442 426.987,585.165 426.987,577.432C426.987,569.7 433.265,563.423 440.997,563.423ZM440.997,571.423C437.68,571.423 434.987,574.116 434.987,577.432C434.987,580.749 437.68,583.442 440.997,583.442C444.314,583.442 447.006,580.749 447.006,577.432C447.006,574.116 444.314,571.423 440.997,571.423Z"></path>
            </g>
            <g transform="matrix(0.75,0,0,0.75,0,0)">
                <path style="fill:rgb(0,149,255);" d="M351.999,484.805L351.999,508.762L347.999,512.762L324.042,512.762L320.042,508.762L320.042,484.805L324.042,480.805L347.999,480.805L351.999,484.805ZM343.999,488.805C343.999,488.805 328.042,488.805 328.042,488.805C328.042,488.805 328.042,504.762 328.042,504.762C328.042,504.762 343.999,504.762 343.999,504.762L343.999,488.805Z"></path>
            </g>
        </g>
    </g>
</svg>
